<svg xmlns="http://www.w3.org/2000/svg" style="display: none;">
  <defs>
    <symbol id="chev-left" width="24" height="24" fill="current" viewBox="0 0 24 24">
      <path fill="current" fill-rule="evenodd" d="M16.151 22.205c.43-.428.468-1.165.087-1.647l-6.572-8.3a.425.425 0 0 1 0-.516l6.572-8.3c.38-.482.342-1.22-.087-1.647-.429-.428-1.086-.385-1.467.097l-6.572 8.3c-.816 1.03-.816 2.585 0 3.617l6.572 8.3c.381.481 1.038.524 1.467.096Z" clip-rule="evenodd"/>
    </symbol>
    <symbol id="export" width="24" height="24" fill="current" viewBox="0 0 24 24">
      <path fill="current" fill-rule="evenodd" d="M4 15.924c0-.56.447-1.014.998-1.014.552 0 .999.454.999 1.014v2.048h12.006v-2.048c0-.56.447-1.014.999-1.014.551 0 .998.454.998 1.014v2.048c0 1.12-.894 2.028-1.997 2.028H5.997C4.894 20 4 19.092 4 17.972v-2.048Zm11.25-6.557-2.289-2.325v7.96c0 .56-.447 1.013-.998 1.013-.552 0-.999-.454-.999-1.014V7.042L8.675 9.367a.987.987 0 0 1-1.412 0 1.025 1.025 0 0 1 0-1.434l3.288-3.339a1.975 1.975 0 0 1 2.824 0l3.287 3.339c.39.396.39 1.038 0 1.434a.987.987 0 0 1-1.412 0Z" clip-rule="evenodd"/>
    </symbol>
    <symbol id="question" width="24" height="24" fill="current" viewBox="0 0 24 24">
      <path fill="current" fill-rule="evenodd" d="M4 12a8 8 0 1 1 16 0 8 8 0 0 1-16 0Zm8-10C6.477 2 2 6.477 2 12s4.477 10 10 10 10-4.477 10-10S17.523 2 12 2ZM8.958 7.238c.605-.668 1.61-1.42 3.042-1.42 1.424 0 2.539.728 3.184 1.786.63 1.034.802 2.354.492 3.622-.271 1.112-1.178 2.002-1.83 2.54a10.482 10.482 0 0 1-1.32.922l-.025.015-.008.005-.003.001-.001.001-.489-.872.488.872a1 1 0 0 1-.977-1.745h.001l.014-.008.06-.036a8.5 8.5 0 0 0 .988-.699c.607-.5 1.053-1.034 1.16-1.47.197-.81.066-1.575-.258-2.107A1.65 1.65 0 0 0 12 7.82c-.669 0-1.177.34-1.56.762a3.556 3.556 0 0 0-.546.81l-.002.005a1 1 0 0 1-1.839-.787l.92.391-.92-.392.001-.002.002-.004.005-.011.014-.031a4.987 4.987 0 0 1 .213-.406c.145-.248.366-.58.67-.916ZM13 17.5a1 1 0 1 1-2 0 1 1 0 0 1 2 0Z" clip-rule="evenodd"/>
    </symbol>
    <symbol id="mypage" width="24" height="24" fill="current" viewBox="0 0 24 24">
      <path fill="current" d="M12 1.25c-1.19 0-2.24.594-2.872 1.5H2.5v20h19v-20h-6.628A3.5 3.5 0 0 0 12 1.25Zm-3 9a3 3 0 1 1 6 0 3 3 0 0 1-6 0Zm-3 8.5a4 4 0 0 1 4-4h4a4 4 0 0 1 4 4v1H6v-1Z"/>
    </symbol>
    <symbol id="search" width="24" height="24" fill="current" viewBox="0 0 24 24">
      <path fill="current" fill-rule="evenodd" d="M18 11a7 7 0 1 1-14 0 7 7 0 0 1 14 0Zm-1.382 7.032a9 9 0 1 1 1.414-1.414l3.675 3.675a1 1 0 0 1-1.414 1.414l-3.675-3.675Z" clip-rule="evenodd"/>
    </symbol>
    <symbol id="trash" width="24" height="24" fill="current" viewBox="0 0 24 24">
      <path fill="current" fill-rule="evenodd" d="M8.667 2c-1.228 0-2.223.943-2.223 2.105v2.106H3.111C2.497 6.21 2 6.68 2 7.263c0 .582.497 1.053 1.111 1.053h1.125l.148 11.604C4.398 21.073 5.389 22 6.606 22h10.95c1.227 0 2.222-.943 2.222-2.105V8.315h1.11c.614 0 1.112-.47 1.112-1.052 0-.581-.497-1.052-1.111-1.052h-3.333V4.105C17.556 2.943 16.56 2 15.333 2H8.667Zm6.666 4.21V4.106H8.667v2.106h6.666ZM8.667 8.317H6.458l.148 11.579h10.95V8.315H8.667Zm2.222 2.105c0-.581-.498-1.053-1.111-1.053-.614 0-1.111.472-1.111 1.053v6.316c0 .581.497 1.053 1.11 1.053.614 0 1.112-.472 1.112-1.053V10.42Zm3.333-1.053c.614 0 1.111.472 1.111 1.053v6.316c0 .581-.497 1.053-1.11 1.053-.614 0-1.112-.472-1.112-1.053V10.42c0-.581.498-1.053 1.111-1.053Z" clip-rule="evenodd"/>
    </symbol>
    <symbol id="chat-fill" width="24" height="24" fill="current" viewBox="0 0 24 24">
      <path fill="current" fill-rule="evenodd" d="M1.25 12C1.25 6.063 6.063 1.25 12 1.25S22.75 6.063 22.75 12 17.937 22.75 12 22.75c-1.856 0-3.605-.471-5.13-1.3l-4.233.787a.75.75 0 0 1-.874-.874l.788-4.233A10.7 10.7 0 0 1 1.25 12Zm6-2A.75.75 0 0 1 8 9.25h8a.75.75 0 1 1 0 1.5H8a.75.75 0 0 1-.75-.75ZM8 13.25a.75.75 0 1 0 0 1.5h4a.75.75 0 1 0 0-1.5H8Z" clip-rule="evenodd"/>
    </symbol>
    <symbol id="docs-fill" width="24" height="24" fill="current" viewBox="0 0 24 24">
      <path fill="current" fill-rule="evenodd" d="M18 4H6v16h12V4ZM9 7a1 1 0 1 0 0 2h2a1 1 0 1 0 0-2H9Zm-1 5a1 1 0 0 1 1-1h4a1 1 0 1 1 0 2H9a1 1 0 0 1-1-1Zm1 3a1 1 0 1 0 0 2h6a1 1 0 1 0 0-2H9Z" clip-rule="evenodd"/>
      <path fill="current" fill-rule="evenodd" d="M4 4a2 2 0 0 1 2-2h12a2 2 0 0 1 2 2v16a2 2 0 0 1-2 2H6a2 2 0 0 1-2-2V4Zm14 0H6v16h12V4Z" clip-rule="evenodd"/>
    </symbol>
    <symbol id="home" width="24" height="24" fill="current" viewBox="0 0 24 24">
      <path fill="current" d="m18.164 6.638-6.943-5.219a2.036 2.036 0 0 0-2.475 0L1.804 6.638A1.935 1.935 0 0 0 1 8.19v8.386C1 17.913 2.125 19 3.507 19H8.33v-4.349s.096-.217.225-.217h2.86s.225.093.225.217V19h4.982C17.94 19 19 17.975 19 16.701V8.16c0-.622-.29-1.18-.804-1.553l-.032.03Z"/>
    </symbol>
    <symbol id="check" width="24" height="24" fill="current" viewBox="0 0 24 24">
      <path fill="current" fill-rule="evenodd" d="M19.62 6.18a.9.9 0 0 1 .195 1.282l-7.45 9.797a1.912 1.912 0 0 1-2.632.379l-5.354-3.88a.9.9 0 0 1-.193-1.282.956.956 0 0 1 1.315-.188l5.353 3.88 7.451-9.797a.956.956 0 0 1 1.315-.19Z" clip-rule="evenodd"/>
    </symbol>
    <symbol id="exclamation" width="24" height="24" fill="current" viewBox="0 0 24 24">
      <path fill="current" fill-rule="evenodd" d="M4 12a8 8 0 1 1 16 0 8 8 0 0 1-16 0Zm8-10C6.477 2 2 6.477 2 12s4.477 10 10 10 10-4.477 10-10S17.523 2 12 2Zm0 4.5a1 1 0 0 1 1 1v5.968a1 1 0 0 1-2 0V7.5a1 1 0 0 1 1-1Zm1 10a1 1 0 1 1-2 0 1 1 0 0 1 2 0Z" clip-rule="evenodd"/>
    </symbol>
    <symbol id="message" width="24" height="24" fill="current" viewBox="0 0 24 24">
      <path fill="current" fill-rule="evenodd" d="M4 4a2 2 0 0 0-2 2v12a2 2 0 0 0 2 2h16a2 2 0 0 0 2-2V6a2 2 0 0 0-2-2H4Zm14.2 2H5.8l6.2 4.741L18.2 6ZM4 7.141V18h16V7.141l-6.785 5.189a2 2 0 0 1-2.43 0L4 7.14Z" clip-rule="evenodd"/>
    </symbol>
    <symbol id="contract" width="24" height="24" fill="current" viewBox="0 0 24 24">
      <path fill="current" fill-rule="evenodd" d="M17 3H4a2 2 0 0 0-2 2v14a2 2 0 0 0 2 2h16a2 2 0 0 0 2-2V9a2 2 0 0 0-2-2h-3V3ZM4 19V9h16v10H4ZM4 7h11V5H4v2Zm12 6a1 1 0 1 0 0 2h1a1 1 0 1 0 0-2h-1Z" clip-rule="evenodd"/>
    </symbol>
    <symbol id="close-circle" width="24" height="24" fill="current" viewBox="0 0 24 24">
      <path fill="current" fill-rule="evenodd" d="M4 12a8 8 0 1 1 16 0 8 8 0 0 1-16 0Zm8-10C6.477 2 2 6.477 2 12s4.477 10 10 10 10-4.477 10-10S17.523 2 12 2Zm3.536 13.536a1 1 0 0 1-1.415 0L12 13.414l-2.121 2.122a1 1 0 1 1-1.415-1.415L10.586 12 8.464 9.879A1 1 0 1 1 9.88 8.464L12 10.586l2.121-2.122a1 1 0 0 1 1.415 1.415L13.414 12l2.122 2.121a1 1 0 0 1 0 1.415Z" clip-rule="evenodd"/>
    </symbol>
    <symbol id="chev-right" width="24" height="24" fill="current" viewBox="0 0 24 24">
      <g clip-path="url(#a)">
        <path fill="current" fill-rule="evenodd" d="M7.849 22.205c-.43-.428-.468-1.165-.086-1.647l6.571-8.3a.425.425 0 0 0 0-.516l-6.571-8.3c-.382-.482-.343-1.22.086-1.647.429-.428 1.086-.385 1.467.097l6.571 8.3c.817 1.03.817 2.585 0 3.617l-6.571 8.3c-.381.481-1.038.524-1.467.096Z" clip-rule="evenodd"/>
      </g>
      <defs>
        <clipPath id="a">
          <path fill="#fff" d="M0 0h24v24H0z"/>
        </clipPath>
      </defs>
    </symbol>
    <symbol id="zoom-in" width="24" height="24" fill="current" viewBox="0 0 24 24">
      <path fill="current" fill-rule="evenodd" d="M11 18a7 7 0 1 0 0-14 7 7 0 0 0 0 14Zm0 2a8.962 8.962 0 0 0 5.618-1.968l3.675 3.675a1 1 0 0 0 1.414-1.414l-3.675-3.675A9 9 0 1 0 11 20Zm0-5a1 1 0 0 1-1-1v-2H8a1 1 0 1 1 0-2h2V8a1 1 0 1 1 2 0v2h2a1 1 0 1 1 0 2h-2v2a1 1 0 0 1-1 1Z" clip-rule="evenodd"/>
    </symbol>
    <symbol id="chat" width="24" height="24" fill="current" viewBox="0 0 24 24">
      <path fill="current" fill-rule="evenodd" d="M12.804 4C8.251 4 4.61 7.58 4.61 11.938c0 1.264.305 2.457.847 3.517.24.471.122.948.048 1.18a4.192 4.192 0 0 1-.378.807c-.274.471-.659 1.01-1.007 1.498l-.068.095c-.152.214-.296.416-.426.606.284-.115.594-.25.924-.397l.18-.08c.567-.252 1.18-.523 1.712-.71.296-.104.61-.197.906-.243.263-.04.687-.074 1.087.12l.154.074c.6.29 1.334.646 2.088.94.842.328 1.59.53 2.128.53 4.553 0 8.195-3.58 8.195-7.937C21 7.58 17.357 4 12.804 4ZM2.452 20h.01-.01Zm.157-8.062C2.61 6.423 7.201 2 12.804 2 18.408 2 23 6.423 23 11.938c0 5.515-4.591 9.938-10.195 9.938-.93 0-1.968-.323-2.854-.668-.832-.324-1.635-.713-2.228-1a21.488 21.488 0 0 0-.048-.024l-.022.003c-.12.02-.301.067-.548.154-.453.159-.989.396-1.576.657l-.17.075c-.622.276-1.308.575-1.892.751a3.71 3.71 0 0 1-.932.175c-.292.01-.786-.033-1.17-.421-.439-.447-.384-1.01-.324-1.282.065-.3.204-.592.336-.835.27-.495.68-1.072 1.047-1.587l.043-.06c.371-.521.706-.99.932-1.379.075-.13.127-.23.16-.305a9.695 9.695 0 0 1-.949-4.192Zm1 4.053-.006.021a.09.09 0 0 1 .005-.021Zm4.126 4.189h-.01.01Z" clip-rule="evenodd"/>
    </symbol>
    <symbol id="close" width="24" height="24" fill="current" viewBox="0 0 24 24">
      <path fill="current" fill-rule="evenodd" d="M5.707 3.293a1.03 1.03 0 0 0-1.43.017.972.972 0 0 0 .016 1.397L10.894 11l-6.6 6.293a.972.972 0 0 0-.018 1.397 1.03 1.03 0 0 0 1.431.017l6.636-6.326 6.426 6.126c.4.381 1.04.374 1.431-.017a.972.972 0 0 0-.016-1.397L13.792 11l6.392-6.093A.972.972 0 0 0 20.2 3.51a1.03 1.03 0 0 0-1.43-.017L12.342 9.62 5.707 3.293Z" clip-rule="evenodd"/>
    </symbol>
    <symbol id="docs" width="24" height="24" fill="current" viewBox="0 0 24 24">
      <path fill="current" fill-rule="evenodd" d="M6 2a2 2 0 0 0-2 2v16a2 2 0 0 0 2 2h12a2 2 0 0 0 2-2V4a2 2 0 0 0-2-2H6Zm0 2h12v16H6V4Zm3 3a1 1 0 1 0 0 2h2a1 1 0 1 0 0-2H9Zm-1 5a1 1 0 0 1 1-1h4a1 1 0 1 1 0 2H9a1 1 0 0 1-1-1Zm1 3a1 1 0 1 0 0 2h6a1 1 0 1 0 0-2H9Z" clip-rule="evenodd"/>
    </symbol>
    <symbol id="copy" width="24" height="24" fill="current" viewBox="0 0 24 24">
      <path fill="current" fill-rule="evenodd" d="M12.065 4.24c0-.217.175-.392.392-.392h7.304a.39.39 0 0 1 .391.391v7.304a.391.391 0 0 1-.391.392h-2.609a1.174 1.174 0 1 0 0 2.348h2.609a2.74 2.74 0 0 0 2.739-2.74V4.24a2.74 2.74 0 0 0-2.74-2.74h-7.304a2.74 2.74 0 0 0-2.739 2.74v2.608a1.174 1.174 0 0 0 2.348 0V4.239ZM3.848 20.151v-7.826h7.826v7.826H3.848ZM1.5 11.543c0-.864.7-1.565 1.565-1.565h9.392c.864 0 1.565.701 1.565 1.566v9.39c0 .865-.701 1.566-1.566 1.566h-9.39c-.865 0-1.566-.7-1.566-1.565v-9.391Z" clip-rule="evenodd"/>
    </symbol>
    <symbol id="bell" width="24" height="24" fill="current" viewBox="0 0 24 24">
      <path stroke="current" stroke-linecap="round" stroke-linejoin="round" stroke-width="2" d="M15 19a3 3 0 0 1-6 0m3.721-13.997L11.255 5c-3.344-.008-6.247 2.709-6.27 6v3.79c0 .79-.1 1.561-.53 2.218l-.288.438C3.73 18.11 4.2 19 4.985 19h14.03c.785 0 1.254-.89.818-1.554l-.287-.438c-.43-.657-.53-1.429-.53-2.219v-3.788c-.04-3.292-2.95-5.99-6.295-5.998Z"/>
      <path stroke="current" stroke-linecap="round" stroke-linejoin="round" stroke-width="2" d="M12 2a2 2 0 0 1 2 2v1h-4V4a2 2 0 0 1 2-2Z"/>
    </symbol>
    <symbol id="chev-down" width="24" height="24" fill="current" viewBox="0 0 24 24">
      <path fill="current" fill-rule="evenodd" d="M2.253 7.347a.977.977 0 0 1 1.411-.086L12 14.93l8.336-7.669a.977.977 0 0 1 1.411.086 1.06 1.06 0 0 1-.083 1.462l-8.335 7.668a1.95 1.95 0 0 1-2.658 0L2.336 8.81a1.06 1.06 0 0 1-.083-1.462Z" clip-rule="evenodd"/>
    </symbol>
    <symbol id="chev-up" width="24" height="24" fill="current" viewBox="0 0 24 24">
      <path fill="current" fill-rule="evenodd" d="M2.253 16.653a.977.977 0 0 0 1.411.086L12 9.069l8.336 7.67a.977.977 0 0 0 1.411-.086 1.06 1.06 0 0 0-.083-1.461l-8.335-7.67a1.95 1.95 0 0 0-2.658 0l-8.335 7.67a1.06 1.06 0 0 0-.083 1.46Z" clip-rule="evenodd"/>
    </symbol>
  </defs>
</svg>
